<?xml version="1.0" encoding="utf-8"?>
<!-- Generator: Adobe Illustrator 26.5.0, SVG Export Plug-In . SVG Version: 6.00 Build 0)  -->
<svg version="1.0" id="katman_1" xmlns="http://www.w3.org/2000/svg" xmlns:xlink="http://www.w3.org/1999/xlink" x="0px" y="0px"
	 viewBox="0 0 1190.55 841.89" style="enable-background:new 0 0 1190.55 841.89;" xml:space="preserve">
<style type="text/css">
	.st0{fill-rule:evenodd;clip-rule:evenodd;fill:#CD1719;}
</style>
<g>
	<path class="st0" d="M1018.81,477.81l34.97-96.59H957.2c-12.49,0-26.09,9.99-30.53,22.2l-26.37,71.89h-51.62l24.98-65.22h26.37
		l12.49-34.42H886.7l17.76-46.91h-45.8l-17.21,46.91h-30.25l-12.49,34.42h30.25l-23.87,65.22h-52.73l36.91-97.42h-44.96
		l-36.36,99.64h-41.63l-11.66-37.47l67.17-60.23H674.1l-54.12,48.57h-4.16l34.97-96.31h-41.91l-53.01,145.71h-38.58l34.69-96.59
		h-96.31c-12.49,0-26.09,9.99-30.81,22.2l-27.76,76.6h-36.08l36.08-99.08h-79.1l8.6-23.87h-77.44l8.33-22.76H127.33v41.63h73.27
		l-49.68,136.28h41.63l41.35-113.24h35.8l-41.35,113.24h41.91l32.47-89.37h37.47l-32.47,89.37h66.61l21.37-21.93
		c0.28,10.82,5.83,21.93,15.26,21.93h38.3l23.04-24.42c-0.55,11.38,5.27,24.42,15.27,24.42h38.3l26.92-26.37l-9.44,26.37h41.91
		l24.7-67.72h4.72l21.09,67.72h44.69l25.26-26.64c-1.11,11.93,5,25.81,15.27,25.81h55.79l25.81-28.31
		c-2.22,12.21,3.88,28.31,14.99,28.31h55.79l24.15-26.37c-1.94,11.93,4.16,27.2,14.99,27.2h38.3l23.04-24.42
		c-0.55,11.38,5.27,24.42,15.27,24.42h73.55v-34.42H1018.81L1018.81,477.81z M474.27,476.98h-33.03l21.93-60.23h33.03L474.27,476.98
		L474.27,476.98z M975.79,476.98h-33.03l22.2-60.23h32.75L975.79,476.98L975.79,476.98z"/>
	<polygon class="st0" points="808.16,328.77 762.08,328.77 748.21,366.79 793.72,366.79 808.16,328.77 	"/>
</g>
</svg>
